<svg width="13" height="21" viewBox="0 0 13 21" fill="none" xmlns="http://www.w3.org/2000/svg">
<path d="M6.42857 0.334595C2.87786 0.334595 0 3.21245 0 6.76317C0 9.94692 2.31921 12.5902 5.35714 13.1025V17.4775H7.5V13.1025C10.5379 12.5902 12.8571 9.94692 12.8571 6.76317C12.8571 3.21245 9.97929 0.334595 6.42857 0.334595ZM6.07143 1.40602H6.78571V2.14263C7.17714 2.17263 7.55268 2.23799 7.92411 2.36584L8.21428 1.6962L8.88393 1.98638L8.59375 2.65602C8.94161 2.83817 9.26357 3.06138 9.55357 3.32567L10.0893 2.83459L10.5804 3.34799L10.0446 3.83906C10.2911 4.14406 10.4852 4.48638 10.6473 4.84352L11.3393 4.59799L11.5848 5.26763L10.2232 5.7587C9.66964 3.66084 7.52196 2.41567 5.42411 2.96852C4.05625 3.32995 2.99464 4.39156 2.63393 5.7587L1.27232 5.26763L1.51786 4.59799L2.20982 4.84352C2.37196 4.48638 2.56607 4.14477 2.8125 3.83906L2.27679 3.34799L2.76786 2.83459L3.30357 3.32567C3.59429 3.06138 3.91625 2.83888 4.26339 2.65602L3.97321 1.98638L4.64286 1.6962L4.93304 2.36584C5.30446 2.23799 5.68071 2.17263 6.07143 2.14263V1.40602ZM6.33929 5.33459C7.00278 5.2936 7.63312 5.71745 7.8125 6.3837C8.0175 7.14513 7.56946 7.94209 6.80804 8.14709C6.04589 8.35281 5.25036 7.90406 5.04464 7.14263L1.42857 7.09799V6.42834L5.04464 6.3837C5.17679 5.89299 5.55768 5.51067 6.04911 5.37924C6.14437 5.35352 6.2445 5.34045 6.33929 5.33459Z" fill="#2DBE83"/>
<path d="M8.16852 18.8289L7.83709 18.6653C7.78209 18.3439 7.61852 18.0503 7.37423 17.8346H5.48423C4.89209 18.356 4.83566 19.2589 5.3578 19.851C5.79352 20.3446 6.50994 20.4767 7.09352 20.1703L7.42423 20.3346L8.16852 18.8289Z" fill="#2DBE83"/>
</svg>
