<svg width="11" height="21" viewBox="0 0 11 21" fill="none" xmlns="http://www.w3.org/2000/svg">
<path d="M7.2 12.5462V0.734595C7.2 0.513795 7.0212 0.334595 6.8 0.334595H2C1.7792 0.334595 1.6 0.513795 1.6 0.734595V12.5462C0.5804 13.387 0 14.6102 0 15.9346C0 18.3606 1.974 20.3346 4.4 20.3346C6.826 20.3346 8.8 18.3606 8.8 15.9346C8.8 14.6102 8.2196 13.387 7.2 12.5462ZM4.4 17.9346C3.2972 17.9346 2.4 17.0374 2.4 15.9346C2.4 14.969 3.0884 14.1606 4 13.9754V3.93459C4 3.71379 4.1792 3.53459 4.4 3.53459C4.6208 3.53459 4.8 3.71379 4.8 3.93459V13.9754C5.7116 14.161 6.4 14.969 6.4 15.9346C6.4 17.0374 5.5028 17.9346 4.4 17.9346Z" fill="#2DBE83"/>
<path d="M9.20002 4.33458H10C10.2212 4.33458 10.4 4.15538 10.4 3.93458C10.4 3.71378 10.2212 3.53458 10 3.53458H9.20002C8.97882 3.53458 8.80002 3.71378 8.80002 3.93458C8.80002 4.15538 8.97882 4.33458 9.20002 4.33458Z" fill="#2DBE83"/>
<path d="M10 5.93459H9.20002C8.97882 5.93459 8.80002 6.11379 8.80002 6.33459C8.80002 6.55539 8.97882 6.73459 9.20002 6.73459H10C10.2212 6.73459 10.4 6.55539 10.4 6.33459C10.4 6.11379 10.2212 5.93459 10 5.93459Z" fill="#2DBE83"/>
<path d="M10 8.33461H9.20002C8.97882 8.33461 8.80002 8.51381 8.80002 8.73461C8.80002 8.95541 8.97882 9.13461 9.20002 9.13461H10C10.2212 9.13461 10.4 8.95541 10.4 8.73461C10.4 8.51381 10.2212 8.33461 10 8.33461Z" fill="#2DBE83"/>
</svg>
